<svg width="18" height="18" viewBox="0 0 18 18" fill="none" xmlns="http://www.w3.org/2000/svg">
<path d="M10.125 16.8751C10.0506 16.8748 9.97696 16.8597 9.9084 16.8307C9.83985 16.8018 9.77772 16.7595 9.72563 16.7063L5.43937 12.3751H1.6875C1.53832 12.3751 1.39524 12.3158 1.28975 12.2103C1.18426 12.1048 1.125 11.9618 1.125 11.8126V6.18757C1.125 6.03839 1.18426 5.89531 1.28975 5.78982C1.39524 5.68433 1.53832 5.62507 1.6875 5.62507H5.43937L9.72563 1.29382C9.83102 1.18905 9.97358 1.13025 10.1222 1.13025C10.2708 1.13025 10.4134 1.18905 10.5188 1.29382C10.6247 1.39767 10.6854 1.5392 10.6875 1.68757V16.3126C10.6875 16.4618 10.6282 16.6048 10.5227 16.7103C10.4173 16.8158 10.2742 16.8751 10.125 16.8751Z" fill="white"/>
</svg>
