<svg width="18" height="18" viewBox="0 0 18 18" fill="none" xmlns="http://www.w3.org/2000/svg">
<path d="M15.2777 4.54504L14.417 5.27067C15.3012 6.31801 15.7725 7.65214 15.7425 9.02245C15.7124 10.3928 15.1831 11.705 14.2539 12.7125L15.0808 13.5C16.1966 12.2909 16.8324 10.7159 16.8686 9.07103C16.9049 7.42614 16.3391 5.82464 15.2777 4.56754V4.54504Z" fill="white"/>
<path d="M12.1388 6.75004C12.6692 7.37893 12.9516 8.17987 12.9329 9.00231C12.9143 9.82476 12.5959 10.6121 12.0376 11.2163L12.8645 11.9813C13.6086 11.1749 14.0324 10.1244 14.0563 9.02733C14.0801 7.93031 13.7023 6.86238 12.9938 6.02441L12.1388 6.75004Z" fill="white"/>
<path d="M10.125 16.8751C10.0506 16.8748 9.97696 16.8597 9.9084 16.8307C9.83985 16.8018 9.77772 16.7595 9.72563 16.7063L5.43937 12.3751H1.6875C1.53832 12.3751 1.39524 12.3158 1.28975 12.2103C1.18426 12.1048 1.125 11.9618 1.125 11.8126V6.18757C1.125 6.03839 1.18426 5.89531 1.28975 5.78982C1.39524 5.68433 1.53832 5.62507 1.6875 5.62507H5.43937L9.72563 1.29382C9.83102 1.18905 9.97358 1.13025 10.1222 1.13025C10.2708 1.13025 10.4134 1.18905 10.5188 1.29382C10.6247 1.39767 10.6854 1.5392 10.6875 1.68757V16.3126C10.6875 16.4618 10.6282 16.6048 10.5227 16.7103C10.4173 16.8158 10.2742 16.8751 10.125 16.8751Z" fill="white"/>
</svg>
